<svg version="1.1" id="Layer_1" xmlns="http://www.w3.org/2000/svg" xmlns:xlink="http://www.w3.org/1999/xlink" x="0px" y="0px"
	 width="100%" viewBox="1 1 500 500" enable-background="new 0 0 500 500" xml:space="preserve">
<path fill="#F8FBE8" opacity="1.000000" stroke="none" 
	d="
M263.000000,501.000000 
	C175.333359,501.000000 88.166710,501.000000 1.000047,501.000000 
	C1.000031,334.333405 1.000031,167.666794 1.000016,1.000136 
	C167.666565,1.000091 334.333130,1.000091 500.999756,1.000045 
	C500.999847,167.666519 500.999847,334.333038 500.999939,500.999786 
	C421.833344,501.000000 342.666656,501.000000 263.000000,501.000000 
M260.547150,189.109726 
	C260.705811,189.022217 260.864502,188.934692 261.792603,188.897552 
	C276.491455,185.039871 284.511414,175.109497 283.018066,159.578217 
	C268.927032,157.225616 255.988724,173.343079 259.383606,186.809052 
	C259.365662,187.551361 259.347717,188.293686 258.608795,189.140945 
	C258.125977,189.109131 257.643188,189.077316 257.058716,188.218033 
	C256.870087,186.583725 256.681427,184.949402 256.970978,182.606964 
	C256.591705,177.743515 257.266846,172.489426 255.636749,168.089386 
	C250.615692,154.536362 234.264481,147.054916 219.453323,150.726990 
	C219.809998,170.568863 235.345795,186.756897 254.587692,188.438034 
	C255.517197,191.646164 256.446686,194.854294 257.376190,198.062424 
	C257.950958,197.938477 258.525726,197.814545 259.100494,197.690613 
	C259.320251,195.151443 259.539978,192.612289 259.902924,189.620804 
	C259.902924,189.620804 260.005554,189.156525 260.547150,189.109726 
M348.568420,104.149292 
	C348.072937,104.101570 347.577454,104.012115 347.081970,104.012047 
	C283.542999,104.003868 220.004013,103.997032 156.465057,104.042953 
	C155.350693,104.043755 154.236771,104.683083 152.946487,105.803314 
	C152.946487,136.672424 152.946487,167.541534 152.946487,198.410645 
	C153.633286,198.436478 154.320084,198.462326 155.006882,198.488174 
	C155.091309,196.814468 155.248367,195.140823 155.249268,193.467087 
	C155.263794,166.365250 155.245453,139.263397 155.287842,112.161621 
	C155.290588,110.402832 155.725861,108.644714 156.898209,106.981560 
	C219.935669,106.963791 282.973145,106.946030 346.534637,107.517654 
	C346.591736,137.781403 346.648834,168.045166 346.705933,198.308914 
	C347.418549,198.302551 348.131195,198.296188 348.843842,198.289825 
	C348.843842,167.183212 348.843842,136.076599 348.568420,104.149292 
M153.297043,294.196045 
	C153.117477,294.646362 152.781143,295.096527 152.780701,295.547028 
	C152.748077,328.465027 152.784134,361.383209 152.662567,394.300812 
	C152.651596,397.275787 154.290054,396.943634 156.373749,397.822113 
	C156.867523,397.879639 157.361282,397.987518 157.855057,397.987610 
	C220.395950,397.996857 282.936829,398.003326 345.477692,397.960327 
	C346.624115,397.959534 347.770172,397.364838 349.087585,396.117493 
	C349.087585,362.067078 349.087585,328.016663 349.087585,293.966217 
	C348.273254,293.960541 347.458923,293.954834 346.644592,293.949158 
	C346.644592,327.576996 346.644592,361.204865 346.644592,395.122162 
	C344.169800,395.122162 342.856201,395.122131 341.542603,395.122162 
	C280.919403,395.123199 220.296173,395.126556 159.672958,395.111847 
	C158.182358,395.111511 156.691772,394.910889 155.169830,393.892181 
	C155.173294,362.238525 155.193268,330.584808 155.132248,298.931274 
	C155.129135,297.322784 154.428558,295.715668 153.297043,294.196045 
M105.030540,256.679932 
	C105.988327,255.798798 106.885178,254.249893 107.914787,254.155930 
	C111.710487,253.809570 115.578125,254.223175 119.367577,253.842316 
	C127.784920,252.996323 132.921417,247.588669 132.901306,240.020859 
	C132.881058,232.411011 127.788582,226.854034 119.393372,226.188049 
	C113.318611,225.706131 107.174850,226.094025 100.900269,226.094025 
	C100.900269,239.795441 100.900269,253.234238 100.900269,266.782410 
	C102.274376,266.782410 103.513168,266.782410 105.030762,266.782410 
	C105.030762,263.583679 105.030762,260.609924 105.030540,256.679932 
M193.043671,241.421967 
	C194.110626,243.810760 195.177582,246.199554 196.820221,249.877213 
	C190.888718,249.877213 186.582687,249.607071 182.325119,249.945908 
	C177.061539,250.364792 174.069366,253.559662 173.982727,258.122131 
	C173.895157,262.734100 177.216400,266.803162 182.334824,266.899261 
	C186.731567,266.981750 191.153320,265.731689 195.628189,265.061310 
	C196.322708,265.533600 197.687881,266.461945 199.892258,267.960999 
	C199.892258,259.933685 200.052933,253.450775 199.840881,246.980087 
	C199.674377,241.899094 197.471252,237.264847 192.148727,236.762222 
	C187.261856,236.300751 182.161728,237.634048 177.231308,238.573883 
	C176.449875,238.722824 176.067886,240.967239 175.501236,242.242844 
	C175.922394,242.473633 176.343552,242.704422 176.764709,242.935211 
	C181.677856,239.944214 186.756638,238.355957 193.043671,241.421967 
M244.832077,259.360016 
	C244.832077,261.814240 244.832077,264.268463 244.832077,266.684570 
	C246.438110,266.684570 247.641449,266.684570 248.986252,266.684570 
	C248.986252,260.543945 249.115021,254.727982 248.958603,248.919693 
	C248.662170,237.911942 238.390625,232.268280 228.785355,237.767517 
	C227.535660,238.483002 226.396347,239.391281 226.049820,239.629684 
	C224.369720,238.110504 223.026031,236.895493 220.708191,234.799652 
	C220.708191,246.643311 220.708191,256.602448 220.708191,266.757843 
	C222.082886,266.757843 223.302338,266.757843 224.932373,266.757843 
	C224.932373,260.702637 224.705872,254.889511 224.995178,249.102173 
	C225.292480,243.154999 229.522400,239.729355 235.748245,239.828445 
	C241.359344,239.917740 244.335251,242.821152 244.749619,248.921371 
	C244.963409,252.068832 244.816162,255.240829 244.832077,259.360016 
M384.067017,258.513763 
	C382.077209,261.145599 380.087433,263.777466 377.592163,267.077942 
	C386.580811,266.969055 386.811981,257.785187 392.340973,254.915070 
	C403.342255,266.883911 403.342255,266.883911 406.099976,266.221283 
	C403.325684,262.611298 400.911285,258.757507 397.790863,255.601837 
	C394.407135,252.179840 394.958221,249.689453 397.957825,246.480103 
	C400.753754,243.488693 403.003967,239.987213 406.350037,235.584427 
	C397.800415,236.616547 396.938965,244.215195 392.238983,247.471344 
	C387.245422,244.705536 386.773315,236.230545 378.084015,235.942215 
	C382.372162,241.581268 386.042908,246.408401 389.682129,251.194092 
	C387.747681,253.732498 386.136627,255.846542 384.067017,258.513763 
M334.661652,236.035629 
	C334.200592,235.901169 333.430389,235.887192 333.324097,235.614487 
	C331.204010,230.173645 334.327484,226.258545 340.047394,226.948456 
	C341.345032,227.104965 342.721741,226.605835 344.062073,226.408493 
	C334.766205,220.274063 329.848175,223.697083 328.452637,235.843323 
	C326.847229,235.969528 325.219238,236.097504 323.437225,236.237579 
	C322.158966,241.679779 327.334106,238.653320 328.940979,240.979980 
	C328.940979,249.233978 328.940979,257.998077 328.940979,267.034698 
	C330.486694,266.912231 331.686005,266.817230 333.198059,266.697449 
	C333.198059,257.519409 333.198059,248.740921 333.198059,239.995804 
	C342.078674,239.510605 342.078674,239.510605 341.532074,236.035767 
	C339.553680,236.035767 337.556183,236.035767 334.661652,236.035629 
M274.486176,234.759018 
	C274.486176,233.120529 274.486176,231.482040 274.486176,229.634644 
	C267.846954,228.285980 271.280518,233.857132 269.533966,235.929993 
	C268.155334,236.012222 266.584778,236.105896 265.014221,236.199585 
	C264.794250,236.756363 264.574310,237.313141 264.354340,237.869919 
	C266.134369,238.813675 267.914368,239.757416 270.120789,240.927246 
	C270.120789,241.357986 270.118896,242.344055 270.121124,243.330139 
	C270.132904,248.489380 269.903625,253.663376 270.217133,258.804260 
	C270.644287,265.809082 277.457764,269.620758 283.559113,266.369476 
	C284.480316,265.878601 284.842621,264.338928 285.994659,262.382141 
	C277.239044,264.366150 274.823303,263.403534 274.550598,258.161133 
	C274.242035,252.228897 274.479431,246.268280 274.479431,240.383865 
	C283.470825,238.922302 283.470825,238.922302 283.577332,236.318909 
	C280.644348,236.089066 277.703644,235.858612 274.486176,234.759018 
M152.572296,223.336563 
	C152.084824,224.086044 151.176926,224.832886 151.172211,225.585403 
	C151.086639,239.220016 151.109848,252.855331 151.109848,266.686340 
	C152.756592,266.686340 154.069565,266.686340 155.622513,266.686340 
	C155.622513,252.988663 155.671432,239.675430 155.526688,226.364288 
	C155.515488,225.334503 154.143524,224.319534 152.572296,223.336563 
M361.627228,261.294922 
	C361.627228,253.028748 361.627228,244.762573 361.627228,236.008286 
	C359.857361,236.151154 358.549011,236.256775 357.298767,236.357697 
	C357.298767,246.810043 357.298767,256.717987 357.298767,266.848877 
	C358.736633,266.848877 359.974060,266.848877 361.627045,266.848877 
	C361.627045,265.169678 361.627045,263.703461 361.627228,261.294922 
M307.006348,265.224060 
	C307.006348,255.652817 307.006348,246.081589 307.006348,236.510345 
	C306.639679,236.182816 306.273010,235.855286 305.906342,235.527756 
	C304.894806,236.411911 303.024323,237.276810 303.004028,238.183167 
	C302.790192,247.725342 302.871765,257.274139 302.871765,267.473419 
	C304.693787,266.894653 305.825439,266.535217 307.006348,265.224060 
M361.742554,228.273529 
	C362.947906,225.804306 362.439056,223.816147 359.554138,223.705856 
	C358.536377,223.666946 356.484497,225.661682 356.565033,226.582718 
	C356.810455,229.389069 358.854706,229.850998 361.742554,228.273529 
M306.654755,224.064713 
	C305.141785,224.535904 303.570984,224.894379 302.181824,225.606964 
	C301.986511,225.707169 302.372894,228.049347 303.035645,228.448975 
	C303.979034,229.017868 306.237305,229.209930 306.500427,228.747452 
	C307.153809,227.598969 306.995270,225.988525 306.654755,224.064713 
z"/>
<path fill="#6F7066" opacity="1.000000" stroke="none" 
	d="
M155.201187,394.803650 
	C156.691772,394.910889 158.182358,395.111511 159.672958,395.111847 
	C220.296173,395.126556 280.919403,395.123199 341.542603,395.122162 
	C342.856201,395.122131 344.169800,395.122162 346.644592,395.122162 
	C346.644592,361.204865 346.644592,327.576996 346.644592,293.949158 
	C347.458923,293.954834 348.273254,293.960541 349.087585,293.966217 
	C349.087585,328.016663 349.087585,362.067078 348.544678,396.495697 
	C347.172089,396.940948 346.342346,397.066895 345.512665,397.066650 
	C282.371246,397.048737 219.229858,397.020905 156.088455,396.993805 
	C154.290054,396.943634 152.651596,397.275787 152.662567,394.300812 
	C152.784134,361.383209 152.748077,328.465027 152.780701,295.547028 
	C152.781143,295.096527 153.117477,294.646362 153.617554,294.610718 
	C153.925873,327.290405 153.902084,359.555511 153.956177,391.820435 
	C153.957840,392.815552 154.767975,393.809265 155.201187,394.803650 
z"/>
<path fill="#C0DF69" opacity="1.000000" stroke="none" 
	d="
M254.066528,187.842056 
	C235.345795,186.756897 219.809998,170.568863 219.453323,150.726990 
	C234.264481,147.054916 250.615692,154.536362 255.636749,168.089386 
	C257.266846,172.489426 256.591705,177.743515 256.427582,182.830994 
	C251.716232,177.372894 247.781006,171.495514 243.261230,166.108597 
	C241.548798,164.067612 238.488770,163.157272 236.042984,161.731552 
	C239.380722,166.239746 243.818329,169.302719 246.824387,173.412750 
	C249.957565,177.696518 251.710266,182.990021 254.066528,187.842056 
z"/>
<path fill="#0B0B09" opacity="1.000000" stroke="none" 
	d="
M105.030655,257.158020 
	C105.030762,260.609924 105.030762,263.583679 105.030762,266.782410 
	C103.513168,266.782410 102.274376,266.782410 100.900269,266.782410 
	C100.900269,253.234238 100.900269,239.795441 100.900269,226.094025 
	C107.174850,226.094025 113.318611,225.706131 119.393372,226.188049 
	C127.788582,226.854034 132.881058,232.411011 132.901306,240.020859 
	C132.921417,247.588669 127.784920,252.996323 119.367577,253.842316 
	C115.578125,254.223175 111.710487,253.809570 107.914787,254.155930 
	C106.885178,254.249893 105.988327,255.798798 105.030655,257.158020 
M116.214638,250.104279 
	C117.701668,249.974731 119.229996,250.021286 120.668289,249.683929 
	C125.810516,248.477783 128.480453,244.869736 128.323837,239.565262 
	C128.177094,234.595016 125.386215,230.801651 120.383789,230.260468 
	C115.386894,229.719864 110.285866,230.141861 105.240868,230.141861 
	C105.240868,236.893509 105.240868,243.309647 105.240868,250.116928 
	C108.722862,250.116928 112.003227,250.116928 116.214638,250.104279 
z"/>
<path fill="#C0DF69" opacity="1.000000" stroke="none" 
	d="
M259.630402,186.082428 
	C255.988724,173.343079 268.927032,157.225616 283.018066,159.578217 
	C284.511414,175.109497 276.491455,185.039871 261.515442,188.551819 
	C264.699493,182.014603 268.160736,175.823120 271.621979,169.631638 
	C264.928558,173.316910 262.570160,179.900635 259.630402,186.082428 
z"/>
<path fill="#10110E" opacity="1.000000" stroke="none" 
	d="
M192.686325,241.184738 
	C186.756638,238.355957 181.677856,239.944214 176.764709,242.935211 
	C176.343552,242.704422 175.922394,242.473633 175.501236,242.242844 
	C176.067886,240.967239 176.449875,238.722824 177.231308,238.573883 
	C182.161728,237.634048 187.261856,236.300751 192.148727,236.762222 
	C197.471252,237.264847 199.674377,241.899094 199.840881,246.980087 
	C200.052933,253.450775 199.892258,259.933685 199.892258,267.960999 
	C197.687881,266.461945 196.322708,265.533600 195.628189,265.061310 
	C191.153320,265.731689 186.731567,266.981750 182.334824,266.899261 
	C177.216400,266.803162 173.895157,262.734100 173.982727,258.122131 
	C174.069366,253.559662 177.061539,250.364792 182.325119,249.945908 
	C186.582687,249.607071 190.888718,249.877213 196.820221,249.877213 
	C195.177582,246.199554 194.110626,243.810760 192.686325,241.184738 
M195.700897,256.873383 
	C195.629883,255.620560 195.558868,254.367737 195.481140,252.996552 
	C191.151459,252.996552 187.107376,252.507355 183.278275,253.202454 
	C181.357452,253.551147 178.434616,256.083832 178.464325,257.579163 
	C178.503983,259.576233 180.554810,262.420044 182.480362,263.319855 
	C187.436661,265.635925 192.511581,263.119385 195.700897,256.873383 
z"/>
<path fill="#0D0E0B" opacity="1.000000" stroke="none" 
	d="
M244.832062,258.880859 
	C244.816162,255.240829 244.963409,252.068832 244.749619,248.921371 
	C244.335251,242.821152 241.359344,239.917740 235.748245,239.828445 
	C229.522400,239.729355 225.292480,243.154999 224.995178,249.102173 
	C224.705872,254.889511 224.932373,260.702637 224.932373,266.757843 
	C223.302338,266.757843 222.082886,266.757843 220.708191,266.757843 
	C220.708191,256.602448 220.708191,246.643311 220.708191,234.799652 
	C223.026031,236.895493 224.369720,238.110504 226.049820,239.629684 
	C226.396347,239.391281 227.535660,238.483002 228.785355,237.767517 
	C238.390625,232.268280 248.662170,237.911942 248.958603,248.919693 
	C249.115021,254.727982 248.986252,260.543945 248.986252,266.684570 
	C247.641449,266.684570 246.438110,266.684570 244.832077,266.684570 
	C244.832077,264.268463 244.832077,261.814240 244.832062,258.880859 
z"/>
<path fill="#44443A" opacity="1.000000" stroke="none" 
	d="
M155.959930,106.886284 
	C155.725861,108.644714 155.290588,110.402832 155.287842,112.161621 
	C155.245453,139.263397 155.263794,166.365250 155.249268,193.467087 
	C155.248367,195.140823 155.091309,196.814468 155.006882,198.488174 
	C154.320084,198.462326 153.633286,198.436478 152.946487,198.410645 
	C152.946487,167.541534 152.946487,136.672424 153.282608,105.411499 
	C153.618729,105.019676 154.112335,105.069412 154.227646,105.329582 
	C154.880157,105.773430 155.417374,105.957108 155.956863,106.327148 
	C155.959152,106.513519 155.959930,106.886284 155.959930,106.886284 
z"/>
<path fill="#10110E" opacity="1.000000" stroke="none" 
	d="
M384.296295,258.237183 
	C386.136627,255.846542 387.747681,253.732498 389.682129,251.194092 
	C386.042908,246.408401 382.372162,241.581268 378.084015,235.942215 
	C386.773315,236.230545 387.245422,244.705536 392.238983,247.471344 
	C396.938965,244.215195 397.800415,236.616547 406.350037,235.584427 
	C403.003967,239.987213 400.753754,243.488693 397.957825,246.480103 
	C394.958221,249.689453 394.407135,252.179840 397.790863,255.601837 
	C400.911285,258.757507 403.325684,262.611298 406.099976,266.221283 
	C403.342255,266.883911 403.342255,266.883911 392.340973,254.915070 
	C386.811981,257.785187 386.580811,266.969055 377.592163,267.077942 
	C380.087433,263.777466 382.077209,261.145599 384.296295,258.237183 
z"/>
<path fill="#10110E" opacity="1.000000" stroke="none" 
	d="
M335.110168,236.035706 
	C337.556183,236.035767 339.553680,236.035767 341.532074,236.035767 
	C342.078674,239.510605 342.078674,239.510605 333.198059,239.995804 
	C333.198059,248.740921 333.198059,257.519409 333.198059,266.697449 
	C331.686005,266.817230 330.486694,266.912231 328.940979,267.034698 
	C328.940979,257.998077 328.940979,249.233978 328.940979,240.979980 
	C327.334106,238.653320 322.158966,241.679779 323.437225,236.237579 
	C325.219238,236.097504 326.847229,235.969528 328.452637,235.843323 
	C329.848175,223.697083 334.766205,220.274063 344.062073,226.408493 
	C342.721741,226.605835 341.345032,227.104965 340.047394,226.948456 
	C334.327484,226.258545 331.204010,230.173645 333.324097,235.614487 
	C333.430389,235.887192 334.200592,235.901169 335.110168,236.035706 
z"/>
<path fill="#151612" opacity="1.000000" stroke="none" 
	d="
M274.624573,235.193604 
	C277.703644,235.858612 280.644348,236.089066 283.577332,236.318909 
	C283.470825,238.922302 283.470825,238.922302 274.479431,240.383865 
	C274.479431,246.268280 274.242035,252.228897 274.550598,258.161133 
	C274.823303,263.403534 277.239044,264.366150 285.994659,262.382141 
	C284.842621,264.338928 284.480316,265.878601 283.559113,266.369476 
	C277.457764,269.620758 270.644287,265.809082 270.217133,258.804260 
	C269.903625,253.663376 270.132904,248.489380 270.121124,243.330139 
	C270.118896,242.344055 270.120789,241.357986 270.120789,240.927246 
	C267.914368,239.757416 266.134369,238.813675 264.354340,237.869919 
	C264.574310,237.313141 264.794250,236.756363 265.014221,236.199585 
	C266.584778,236.105896 268.155334,236.012222 269.533966,235.929993 
	C271.280518,233.857132 267.846954,228.285980 274.486176,229.634644 
	C274.486176,231.482040 274.486176,233.120529 274.624573,235.193604 
z"/>
<path fill="#44443A" opacity="1.000000" stroke="none" 
	d="
M348.843842,104.969978 
	C348.843842,136.076599 348.843842,167.183212 348.843842,198.289825 
	C348.131195,198.296188 347.418549,198.302551 346.705933,198.308914 
	C346.648834,168.045166 346.591736,137.781403 346.279358,107.020584 
	C346.024078,106.523521 346.039856,106.118851 346.324097,106.061531 
	C347.034424,105.693710 347.460510,105.383202 348.125366,105.041733 
	C348.364105,105.010765 348.843842,104.969978 348.843842,104.969978 
z"/>
<path fill="#2B2C28" opacity="1.000000" stroke="none" 
	d="
M152.988159,223.317108 
	C154.143524,224.319534 155.515488,225.334503 155.526688,226.364288 
	C155.671432,239.675430 155.622513,252.988663 155.622513,266.686340 
	C154.069565,266.686340 152.756592,266.686340 151.109848,266.686340 
	C151.109848,252.855331 151.086639,239.220016 151.172211,225.585403 
	C151.176926,224.832886 152.084824,224.086044 152.988159,223.317108 
z"/>
<path fill="#20211B" opacity="1.000000" stroke="none" 
	d="
M348.706116,104.559631 
	C348.843842,104.969978 348.364105,105.010765 347.666046,105.012573 
	C282.682770,105.032722 218.397552,105.051071 154.112335,105.069412 
	C154.112335,105.069412 153.618729,105.019676 153.370697,105.022064 
	C154.236771,104.683083 155.350693,104.043755 156.465057,104.042953 
	C220.004013,103.997032 283.542999,104.003868 347.081970,104.012047 
	C347.577454,104.012115 348.072937,104.101570 348.706116,104.559631 
z"/>
<path fill="#20211B" opacity="1.000000" stroke="none" 
	d="
M156.231110,397.407959 
	C219.229858,397.020905 282.371246,397.048737 345.512665,397.066650 
	C346.342346,397.066895 347.172089,396.940948 348.459106,396.960571 
	C347.770172,397.364838 346.624115,397.959534 345.477692,397.960327 
	C282.936829,398.003326 220.395950,397.996857 157.855057,397.987610 
	C157.361282,397.987518 156.867523,397.879639 156.231110,397.407959 
z"/>
<path fill="#55564E" opacity="1.000000" stroke="none" 
	d="
M346.039856,106.118851 
	C346.039856,106.118851 346.024078,106.523521 346.017334,106.725891 
	C282.973145,106.946030 219.935669,106.963791 156.429077,106.933922 
	C155.959930,106.886284 155.959152,106.513519 156.427505,106.276215 
	C189.668198,106.026154 222.440567,105.993469 255.212891,106.006470 
	C285.488556,106.018478 315.764191,106.079445 346.039856,106.118851 
z"/>
<path fill="#2B2C28" opacity="1.000000" stroke="none" 
	d="
M361.627136,261.766113 
	C361.627045,263.703461 361.627045,265.169678 361.627045,266.848877 
	C359.974060,266.848877 358.736633,266.848877 357.298767,266.848877 
	C357.298767,256.717987 357.298767,246.810043 357.298767,236.357697 
	C358.549011,236.256775 359.857361,236.151154 361.627228,236.008286 
	C361.627228,244.762573 361.627228,253.028748 361.627136,261.766113 
z"/>
<path fill="#0B0B09" opacity="1.000000" stroke="none" 
	d="
M306.981689,265.699921 
	C305.825439,266.535217 304.693787,266.894653 302.871765,267.473419 
	C302.871765,257.274139 302.790192,247.725342 303.004028,238.183167 
	C303.024323,237.276810 304.894806,236.411911 305.906342,235.527756 
	C306.273010,235.855286 306.639679,236.182816 307.006348,236.510345 
	C307.006348,246.081589 307.006348,255.652817 306.981689,265.699921 
z"/>
<path fill="#79973C" opacity="1.000000" stroke="none" 
	d="
M254.327118,188.140045 
	C251.710266,182.990021 249.957565,177.696518 246.824387,173.412750 
	C243.818329,169.302719 239.380722,166.239746 236.042984,161.731552 
	C238.488770,163.157272 241.548798,164.067612 243.261230,166.108597 
	C247.781006,171.495514 251.716232,177.372894 256.188477,183.185059 
	C256.681427,184.949402 256.870087,186.583725 257.070679,188.927536 
	C257.975006,189.782394 258.867340,189.927750 259.759705,190.073120 
	C259.539978,192.612289 259.320251,195.151443 259.100494,197.690613 
	C258.525726,197.814545 257.950958,197.938477 257.376190,198.062424 
	C256.446686,194.854294 255.517197,191.646164 254.327118,188.140045 
z"/>
<path fill="#2B2C28" opacity="1.000000" stroke="none" 
	d="
M155.185516,394.347900 
	C154.767975,393.809265 153.957840,392.815552 153.956177,391.820435 
	C153.902084,359.555511 153.925873,327.290405 153.995392,294.566650 
	C154.428558,295.715668 155.129135,297.322784 155.132248,298.931274 
	C155.193268,330.584808 155.173294,362.238525 155.185516,394.347900 
z"/>
<path fill="#79973C" opacity="1.000000" stroke="none" 
	d="
M259.507019,186.445740 
	C262.570160,179.900635 264.928558,173.316910 271.621979,169.631638 
	C268.160736,175.823120 264.699493,182.014603 261.130707,188.526642 
	C260.864502,188.934692 260.705811,189.022217 260.116211,189.057510 
	C259.685242,189.005295 259.329742,189.035995 259.329742,189.035995 
	C259.347717,188.293686 259.365662,187.551361 259.507019,186.445740 
z"/>
<path fill="#151612" opacity="1.000000" stroke="none" 
	d="
M361.513611,228.502167 
	C358.854706,229.850998 356.810455,229.389069 356.565033,226.582718 
	C356.484497,225.661682 358.536377,223.666946 359.554138,223.705856 
	C362.439056,223.816147 362.947906,225.804306 361.513611,228.502167 
z"/>
<path fill="#0B0B09" opacity="1.000000" stroke="none" 
	d="
M306.908783,224.314163 
	C306.995270,225.988525 307.153809,227.598969 306.500427,228.747452 
	C306.237305,229.209930 303.979034,229.017868 303.035645,228.448975 
	C302.372894,228.049347 301.986511,225.707169 302.181824,225.606964 
	C303.570984,224.894379 305.141785,224.535904 306.908783,224.314163 
z"/>
<path fill="#C0DF69" opacity="1.000000" stroke="none" 
	d="
M258.969269,189.088470 
	C259.329742,189.035995 259.685242,189.005295 259.845398,189.080902 
	C260.005554,189.156525 259.902924,189.620804 259.831299,189.846954 
	C258.867340,189.927750 257.975006,189.782394 257.121521,189.341278 
	C257.643188,189.077316 258.125977,189.109131 258.969269,189.088470 
z"/>
<path fill="#F8FBE8" opacity="1.000000" stroke="none" 
	d="
M115.749115,250.110596 
	C112.003227,250.116928 108.722862,250.116928 105.240868,250.116928 
	C105.240868,243.309647 105.240868,236.893509 105.240868,230.141861 
	C110.285866,230.141861 115.386894,229.719864 120.383789,230.260468 
	C125.386215,230.801651 128.177094,234.595016 128.323837,239.565262 
	C128.480453,244.869736 125.810516,248.477783 120.668289,249.683929 
	C119.229996,250.021286 117.701668,249.974731 115.749115,250.110596 
z"/>
<path fill="#F8FBE8" opacity="1.000000" stroke="none" 
	d="
M195.640045,257.274414 
	C192.511581,263.119385 187.436661,265.635925 182.480362,263.319855 
	C180.554810,262.420044 178.503983,259.576233 178.464325,257.579163 
	C178.434616,256.083832 181.357452,253.551147 183.278275,253.202454 
	C187.107376,252.507355 191.151459,252.996552 195.481140,252.996552 
	C195.558868,254.367737 195.629883,255.620560 195.640045,257.274414 
z"/>
<path fill="#8A8B85" opacity="1.000000" stroke="none" 
	d="
M346.324097,106.061531 
	C315.764191,106.079445 285.488556,106.018478 255.212891,106.006470 
	C222.440567,105.993469 189.668198,106.026154 156.425217,106.089844 
	C155.417374,105.957108 154.880157,105.773430 154.227646,105.329582 
	C218.397552,105.051071 282.682770,105.032722 347.427307,105.043541 
	C347.460510,105.383202 347.034424,105.693710 346.324097,106.061531 
z"/>
</svg>